<?xml version="1.0" encoding="utf-8"?>
<!-- Generator: Adobe Illustrator 23.0.1, SVG Export Plug-In . SVG Version: 6.00 Build 0)  -->
<svg version="1.1" id="Camada_1" xmlns="http://www.w3.org/2000/svg" xmlns:xlink="http://www.w3.org/1999/xlink" x="0px" y="0px"
	 viewBox="0 0 100 100" style="enable-background:new 0 0 100 100;" xml:space="preserve">
<style type="text/css">
	.st0{fill:#FF3333;}
</style>
<g>
	<polygon class="st0" points="0,0 0,10 0,100 10,100 100,100 100,90 100,63 90,63 90,90 10,90 10,10 90,10 90,41 100,41 100,10 
		100,0 	"/>
	<polygon class="st0" points="50,57 74,57 74,74 26,74 26,25 84,25 84,15 16,15 16,25 16,84 26,84 84,84 84,74 84,57 100,57 100,47 
		50,47 	"/>
</g>
</svg>
